<svg width="300" height="300" viewBox="0 0 300 300" fill="none" xmlns="http://www.w3.org/2000/svg">
<path d="M143.841 0.12883C226.613 -3.27192 296.468 61.0706 299.868 143.842C303.268 226.612 238.926 296.469 156.155 299.869C73.3846 303.269 3.52931 238.927 0.128812 156.156C-3.27169 73.3851 61.0706 3.52958 143.841 0.12883Z" fill="black"/>
<path d="M52.9595 244.874C51.2245 243.077 49.3462 240.972 47.7095 239.089C24.013 211.977 12.1173 176.527 14.6625 140.608C17.1358 104.497 33.964 70.8799 61.3908 47.2601C88.6665 23.7031 124.208 11.9911 160.145 14.7174C197.979 17.4511 229.858 34.9471 254.428 63.4019C246.318 68.5001 237.395 75.9481 229.518 81.5791C226.59 83.6724 223.315 86.5311 220.338 88.4281L220.278 88.0542C220.22 88.0622 220.16 88.0626 220.105 88.0779C219.713 88.1861 208.295 96.9209 207.895 97.5589C207.853 97.6286 207.813 97.7004 207.77 97.7711C207.005 97.6451 207.045 97.7914 206.715 97.3316L207.068 96.6044C206.616 96.1112 205.571 96.6202 205.358 96.4742C193.847 88.4899 182.881 76.7769 168.141 75.7306C162.289 75.3151 156.397 74.6181 150.864 72.5861C149.103 71.9394 148.2 74.9531 146.996 72.1751C144.991 68.3221 139.188 63.0896 135.436 61.1386L135.064 61.3949C125.711 56.2476 116.963 54.1936 105.907 57.4174C93.3803 61.0696 80.392 71.4459 73.206 82.3539C70.95 85.7784 72.0985 92.9999 70.8763 96.9551C70.067 100.472 68.7978 103.676 68.033 106.922C69.2405 107.232 70.2688 107.382 71.2653 108.105C77.1085 112.56 73.9575 132.143 73.3758 138.743C73.1735 141.038 71.2398 149.403 73.4618 150.991C76.2478 152.981 80.0832 147.354 81.6622 145.665C89.0717 137.564 96.0915 128.979 99.8262 118.509C101.485 113.858 102.443 108.917 103.951 104.213C106.359 97.0126 110.137 88.4097 118.403 86.8139C123.771 85.5564 127.444 89.6247 128.034 94.7332C129.789 109.926 120.844 125.446 112.497 137.384C102.628 151.498 90.0167 162.354 77.7072 174.114C73.8502 177.799 69.927 182.935 66.6457 187.186C65.0922 189.813 63.1878 192.412 61.656 195.035C53.5673 208.884 48.954 229.139 52.9595 244.874Z" fill="#DCDCDC"/>
<path d="M71.2655 108.105C77.1088 112.56 73.9578 132.143 73.376 138.743C73.1738 141.039 71.24 149.404 73.462 150.991C76.248 152.981 80.0835 147.354 81.6625 145.665C89.072 137.564 96.0918 128.979 99.8265 118.509C101.485 113.859 102.443 108.917 103.952 104.214C106.359 97.0128 110.137 88.4098 118.403 86.814C123.772 85.5565 127.445 89.6248 128.035 94.7333C129.789 109.926 120.844 125.446 112.497 137.384C102.628 151.498 90.017 162.355 77.7075 174.115C73.8505 177.799 69.9273 182.935 66.646 187.186C66.1348 185.643 68.5115 184.627 68.7765 183.646C69.4515 181.144 79.0555 173.492 77.8298 171.549L76.818 171.789C75.7718 170.921 76.5145 161.688 76.248 159.854C76.202 158.493 75.2693 156.666 75.0685 155.48C74.597 152.695 74.1588 154.252 73.3543 153.178C73.3958 150.38 71.444 150.113 71.5808 148.691C72.7308 136.722 75.5268 124.267 73.3138 112.281C73.05 110.852 72.1288 109.702 71.18 108.625L70.9758 108.395L71.2655 108.105Z" fill="#DCDCDC"/>
<path d="M237.71 206.407C238.558 206.442 239.663 206.592 240.39 206.252L240.358 206.042L238.728 205.882L238.463 205.547C239.558 203.457 240.955 201.539 242.085 199.48C252.095 181.231 258.165 161.11 261.928 140.71C262.425 138.012 262.47 135.511 262.883 132.981C263.745 133.963 262.77 146.322 262.623 148.4C259.808 187.871 244.265 226.624 213.99 253.002C187.4 276.169 151.902 289.257 116.524 287.174C97.7725 286.069 77.5155 279.784 65.8302 264.057C61.3865 258.909 57.8825 252.104 56.168 245.539C56.4617 244.684 56.1417 244.259 56.2712 243.052C56.9182 242.432 59.386 243.377 60.3822 243.642C71.129 246.507 84.4825 246.252 93.1942 238.449C94.7112 237.092 96.1167 236.502 95.6362 234.259C100.609 238.937 105.275 242.202 111.206 245.654C135.442 256.337 162.918 257.017 187.651 247.539C205.328 240.842 218.075 231.422 230.208 216.842C232.708 213.839 235.808 209.812 237.71 206.407Z" fill="url(#paint0_linear_135_10468)"/>
<path d="M95.6362 234.259C100.609 238.937 105.275 242.202 111.206 245.654C112.244 246.602 112.432 246.699 113.673 247.312C112.999 248.414 111.793 250.449 110.899 251.279C105.92 255.912 95.2335 262.069 88.8955 263.584C83.4667 264.884 70.1042 267.169 65.8302 264.057C61.3865 258.909 57.8825 252.104 56.168 245.539C56.4617 244.684 56.1417 244.259 56.2712 243.052C56.9182 242.432 59.386 243.377 60.3822 243.642C71.129 246.507 84.4825 246.252 93.1942 238.449C94.7112 237.092 96.1167 236.502 95.6362 234.259Z" fill="url(#paint1_linear_135_10468)"/>
<path d="M135.066 61.3949L135.439 61.1387C139.19 63.0897 144.994 68.3222 146.999 72.1752C148.203 74.9532 149.106 71.9394 150.867 72.5862C156.4 74.6182 162.291 75.3152 168.144 75.7307C182.883 76.7769 193.849 88.4899 205.361 96.4742C205.573 96.6202 206.618 96.1112 207.071 96.6044L206.718 97.3317C207.048 97.7914 207.008 97.6452 207.773 97.7712C207.816 97.7004 207.856 97.6287 207.898 97.5589C208.298 96.9209 219.716 88.1862 220.108 88.0779C220.163 88.0627 220.223 88.0622 220.281 88.0542L220.341 88.4282C219.836 89.1322 211.493 95.3947 210.261 96.3569L183.756 117.215C179.855 120.248 172.664 125.272 169.355 128.277C158.749 137.907 147.611 149.384 138.013 160.015C126.048 173.267 112.085 188.274 101.52 202.624C105.739 179.103 118.899 171.354 132.117 152.765C140.468 141.021 150.311 120.315 152.396 105.95C153.286 99.7279 153.175 93.4032 152.066 87.2162C149.876 74.5284 145.176 68.5294 135.066 61.3949Z" fill="#DCDCDC"/>
<path d="M266.636 80.6492C300.921 140.413 288.178 211.817 235.011 255.764L234.328 255.069C262.068 215.092 269.893 150.126 267.821 102.233C267.571 96.4367 267.416 86.0669 266.636 80.6492Z" fill="#DCDCDC"/>
<path d="M123.073 63.5547C137.73 62.5887 147.88 79.0672 149.554 92.0017C152.393 113.937 140.077 132.488 127.603 149.319C125.534 152.111 123.919 155.242 121.758 157.975C111.328 171.662 97.054 186.743 95.856 204.729C95.2182 214.304 102.87 220.454 112.015 220.509C115.303 227.219 113.582 235.287 111.72 242.144C111.321 241.919 110.924 241.687 110.53 241.452C99.8492 235.069 89.5685 226.202 86.4417 213.632C85.6947 210.614 85.3567 207.512 85.4375 204.407C85.5975 195.859 88.1405 192.503 92.3025 185.576C98.007 176.319 105.265 167.848 111.827 159.205C116.235 153.4 120.558 147.372 124.859 141.481C125.591 140.339 126.643 139.188 127.305 138.007C135.41 123.543 147.351 106.727 142.545 89.2642C141.462 85.33 138.484 80.7057 134.863 78.7647C130.779 76.6237 125.132 77.3572 120.806 78.6327C110.636 81.6307 105.651 93.0427 102.105 102.123C101.467 103.758 101.453 106.597 100.925 108.331C99.2355 113.879 98.1042 119.733 95.1487 124.791C94.2925 126.271 92.944 127.963 92.2707 129.47C94.5827 120.41 100.201 112.851 98.3882 103.328C97.5222 102.194 96.3555 101.167 95.3082 100.183C95.208 97.4085 95.2495 85.5172 96.5697 83.933C102.157 77.2287 114.63 65.808 123.073 63.5547Z" fill="url(#paint2_linear_135_10468)"/>
<path d="M95.6184 161.027C96.6251 162.182 99.8646 162.013 102.071 163.968C94.7154 173.814 88.8264 181.825 84.4519 193.367C80.6844 208.517 82.0154 218.024 92.0879 230.582C93.2596 231.797 94.4501 233.067 95.6368 234.259C96.1173 236.502 94.7118 237.092 93.1948 238.449C84.4831 246.252 71.1296 246.507 60.3829 243.642C59.3866 243.377 56.9189 242.432 56.2719 243.052C56.1424 244.259 56.4624 244.684 56.1686 245.539C54.8754 241.129 53.7391 233.284 54.5151 228.749C54.6346 218.042 61.6056 198.76 68.1206 190.539C68.6866 189.295 70.0073 187.573 70.8028 186.392C75.2508 179.785 80.2401 175.765 85.8831 170.469C89.1733 167.368 92.4186 164.221 95.6184 161.027Z" fill="url(#paint3_linear_135_10468)"/>
<path d="M95.6189 161.027C96.6256 162.182 99.8651 162.013 102.072 163.968C94.7159 173.814 88.8268 181.825 84.4523 193.367C84.0451 189.378 89.7608 182.281 89.3178 180.768C87.8326 179.964 80.9921 177.953 79.1256 177.358C76.6218 179.882 74.3198 182.598 72.2411 185.481C71.3981 186.628 69.1723 190.002 68.1211 190.539C68.6871 189.295 70.0078 187.573 70.8033 186.392C75.2513 179.785 80.2406 175.765 85.8836 170.469C89.1738 167.368 92.4191 164.221 95.6189 161.027Z" fill="url(#paint4_linear_135_10468)"/>
<path d="M54.5151 228.749C54.5633 230.079 55.2733 238.579 55.5828 239.367C57.0636 240.202 59.0701 240.289 60.9101 240.724C71.8129 243.299 85.2808 242.859 93.3503 234.062C93.4426 233.962 93.5574 233.437 93.5846 233.312C92.9074 232.362 92.3166 231.714 92.0879 230.582C93.2596 231.797 94.4501 233.067 95.6368 234.259C96.1173 236.502 94.7118 237.092 93.1948 238.449C84.4831 246.252 71.1296 246.507 60.3829 243.642C59.3866 243.377 56.9189 242.432 56.2719 243.052C56.1424 244.259 56.4624 244.684 56.1686 245.539C54.8754 241.129 53.7391 233.284 54.5151 228.749Z" fill="#A3A2A3"/>
<path d="M221.604 89.6718L222.077 89.8478C222.619 89.4553 223.009 89.1616 223.517 88.7263C224.362 90.6001 225.154 93.9583 224.412 95.9516C223.654 96.7613 222.759 97.4158 221.902 98.1151C217.972 101.327 213.907 104.375 210.012 107.63C200.474 115.689 191.212 124.069 182.241 132.754C174.959 139.893 167.981 147.611 161.241 155.27C160.563 156.04 156.252 161.359 155.943 161.558C155.371 161.807 154.732 162.32 154.162 162.661C152.437 162.553 148.883 159.57 148.469 157.725C166.41 134.412 188.652 115.458 211.644 97.3061C214.802 94.8118 218.269 91.8518 221.604 89.6718Z" fill="url(#paint5_linear_135_10468)"/>
<path d="M98.3421 158.377C99.8793 156.417 102.403 153.916 104.161 152.026C106.975 148.97 109.743 145.873 112.465 142.737C123.632 129.777 144.219 101.446 127.898 85.6541C128.353 85.5834 129.084 86.1649 129.501 86.4809C133.57 89.5709 136.226 94.1661 136.874 99.2338C138.7 114.328 124.665 133.323 116.368 145.046C114.946 147.055 105.92 159.54 104.496 160.629C103.704 161.753 102.897 162.866 102.074 163.968C99.8673 162.013 96.6278 162.182 95.6211 161.027C96.5213 160.137 97.4286 159.254 98.3421 158.377Z" fill="url(#paint6_linear_135_10468)"/>
<path d="M98.3421 158.377L98.4821 158.704L97.6098 159.672L97.7846 159.914C99.6118 159.83 102.569 161.743 103.418 161.453L103.924 160.725L104.496 160.629C103.704 161.753 102.897 162.866 102.074 163.968C99.8673 162.012 96.6278 162.182 95.6211 161.027C96.5213 160.137 97.4286 159.253 98.3421 158.377Z" fill="#5C5C5C"/>
<path d="M76.0002 80.6024L79.3967 80.5679L79.7717 80.7209C83.7334 80.8756 86.8812 81.2494 90.7862 81.9221C88.4799 82.8054 88.0642 83.1816 86.4144 85.0404C85.3579 87.2079 85.3069 87.9724 84.5202 89.9339C84.4624 97.3414 84.8447 101.558 77.2314 104.727C74.4659 105.444 72.1454 105.403 69.3047 105.506C73.4939 97.2751 72.7339 95.4314 72.9354 87.0066C73.2272 84.2789 74.0352 82.5069 76.0002 80.6024Z" fill="url(#paint7_linear_135_10468)"/>
<path d="M75.9983 80.6024L79.3948 80.5679L79.7698 80.7209L80.3308 80.9921L80.6633 82.1834C80.5788 82.2889 80.4943 82.3944 80.4096 82.4999C80.5256 84.2354 81.1073 86.1414 80.0673 87.6389C78.2116 90.3104 73.9481 87.5041 75.3201 92.6631L75.0936 92.9901L74.7983 92.8634L74.6871 91.3621L74.3938 91.1676C74.2313 91.4126 73.8616 92.0756 73.6606 92.1501C73.6571 89.8979 73.7316 89.1491 72.9336 87.0066C73.2253 84.2789 74.0333 82.5069 75.9983 80.6024Z" fill="url(#paint8_linear_135_10468)"/>
<path d="M79.3945 80.5679L79.7695 80.7209L80.3305 80.9921L80.663 82.1834C80.5785 82.2889 80.494 82.3944 80.4093 82.4999L79.6678 83.4876L79.4618 83.4486C79.5785 82.3806 79.7353 81.6204 79.3945 80.5679Z" fill="#DCDCDC"/>
<path d="M77.2305 104.727C77.262 104.028 83.648 90.4361 84.5192 89.9341C84.4615 97.3416 84.8437 101.558 77.2305 104.727Z" fill="url(#paint9_linear_135_10468)"/>
<path d="M79.7695 80.7209C83.7313 80.8757 86.879 81.2494 90.784 81.9222C88.4778 82.8054 88.062 83.1817 86.4123 85.0404C85.8898 84.8502 85.8408 84.6767 85.5435 84.2192C84.486 84.3669 84.0948 85.7582 82.61 86.1557C82.3795 85.4992 83.1453 84.9522 82.9588 83.9377C82.32 84.3922 82.5785 84.3989 82.0235 84.3617C81.7865 82.3054 82.7725 83.2394 82.3565 81.7792C81.5463 81.1869 81.3475 81.2069 80.3305 80.9922L79.7695 80.7209Z" fill="url(#paint10_linear_135_10468)"/>
<path d="M228.312 84.62C236.849 77.882 246.704 71.203 255.582 64.7598L258.984 69.2288C253.014 74.6625 246.934 79.2703 240.434 84.0148C238.834 85.1825 234.959 88.25 233.469 89.0968C231.522 90.758 226.614 94.5558 224.409 95.9515C225.152 93.9583 224.359 90.6 223.514 88.7263C223.007 89.1615 222.617 89.4553 222.074 89.8478L221.602 89.6718C223.464 88.0673 226.289 86.036 228.312 84.62Z" fill="url(#paint11_linear_135_10468)"/>
<path d="M228.312 84.6201C227.732 85.6894 227.164 86.0939 226.154 86.7919C226.854 87.8559 228.387 90.2791 229.469 90.6946C230.799 90.8144 231.552 89.6426 233.469 89.0969C231.522 90.7581 226.614 94.5559 224.409 95.9516C225.152 93.9584 224.359 90.6001 223.514 88.7264C223.007 89.1616 222.617 89.4554 222.074 89.8479L221.602 89.6719C223.464 88.0674 226.289 86.0361 228.312 84.6201Z" fill="#A3A2A3"/>
<path d="M80.2267 114.061C81.9809 113.356 83.7434 112.671 85.5139 112.007C85.1149 124.606 84.2479 139.271 74.9189 149.342C74.7234 149.553 74.6181 149.587 74.3519 149.636C73.0401 148.156 76.0191 124.825 76.2461 120.669C76.1694 118.554 76.0674 116.439 75.9406 114.326C77.9344 114.514 78.3057 114.437 80.2267 114.061Z" fill="url(#paint12_linear_135_10468)"/>
<path d="M75.9375 114.326C77.9312 114.514 78.3025 114.437 80.2235 114.061C81.4745 115.453 77.7997 121.908 76.716 123.066L76.6152 123.032C76.255 121.93 76.6955 121.956 76.243 120.669C76.1662 118.554 76.0643 116.439 75.9375 114.326Z" fill="#DCDCDC"/>
<path d="M148.468 157.725C148.882 159.57 152.436 162.553 154.161 162.661C154.731 162.32 155.37 161.807 155.942 161.558C154.708 163.354 152.454 166.061 151.048 167.872C148.332 171.368 145.66 174.898 143.033 178.461C140.244 182.208 137.874 186.327 135.164 189.862C135.495 187.086 135.963 182.282 136.678 179.689C138.718 172.29 143.899 163.811 148.468 157.725Z" fill="url(#paint13_linear_135_10468)"/>
<path d="M94.7855 101.217C95.8035 101.663 97.5408 104.12 97.7058 105.319C98.3255 109.827 92.3543 107.671 89.484 108.763C85.5535 110.258 81.9745 112.49 77.7218 113.208C77.0303 113.155 75.381 112.894 75.0508 112.271C77.5325 109.518 90.2045 104.317 94.6085 101.982L94.7855 101.217Z" fill="#393839"/>
<path d="M234.327 255.069L235.009 255.764L232.602 257.864C233.182 256.774 233.642 256.087 234.327 255.069Z" fill="#A3A2A3"/>
<defs>
<linearGradient id="paint0_linear_135_10468" x1="224.368" y1="243.172" x2="132.374" y2="176.202" gradientUnits="userSpaceOnUse">
<stop stop-color="#1F1E1F"/>
<stop offset="1" stop-color="#444445"/>
</linearGradient>
<linearGradient id="paint1_linear_135_10468" x1="89.7042" y1="263.159" x2="81.785" y2="235.342" gradientUnits="userSpaceOnUse">
<stop stop-color="#484849"/>
<stop offset="1" stop-color="#AEAEAF"/>
</linearGradient>
<linearGradient id="paint2_linear_135_10468" x1="152.303" y1="171.659" x2="72.6945" y2="124.579" gradientUnits="userSpaceOnUse">
<stop stop-color="#2C2C2C"/>
<stop offset="1" stop-color="#515051"/>
</linearGradient>
<linearGradient id="paint3_linear_135_10468" x1="98.5821" y1="223.404" x2="60.8979" y2="204.157" gradientUnits="userSpaceOnUse">
<stop stop-color="#C4C4C5"/>
<stop offset="1" stop-color="#EFEEEE"/>
</linearGradient>
<linearGradient id="paint4_linear_135_10468" x1="94.7234" y1="160.42" x2="85.9431" y2="180.139" gradientUnits="userSpaceOnUse">
<stop stop-color="#5D5D5D"/>
<stop offset="1" stop-color="#AEAEAE"/>
</linearGradient>
<linearGradient id="paint5_linear_135_10468" x1="142.593" y1="143.385" x2="231.467" y2="109.124" gradientUnits="userSpaceOnUse">
<stop stop-color="#454443"/>
<stop offset="1" stop-color="#777778"/>
</linearGradient>
<linearGradient id="paint6_linear_135_10468" x1="136.22" y1="123.721" x2="97.6416" y2="123.6" gradientUnits="userSpaceOnUse">
<stop stop-color="#252425"/>
<stop offset="1" stop-color="#484948"/>
</linearGradient>
<linearGradient id="paint7_linear_135_10468" x1="80.5837" y1="97.1904" x2="72.9792" y2="93.3756" gradientUnits="userSpaceOnUse">
<stop stop-color="#7F7E7E"/>
<stop offset="1" stop-color="#D5D3D3"/>
</linearGradient>
<linearGradient id="paint8_linear_135_10468" x1="77.9811" y1="87.4046" x2="73.4458" y2="85.2574" gradientUnits="userSpaceOnUse">
<stop stop-color="#C9C8C9"/>
<stop offset="1" stop-color="#FAF9F9"/>
</linearGradient>
<linearGradient id="paint9_linear_135_10468" x1="82.97" y1="98.6518" x2="80.3997" y2="97.4306" gradientUnits="userSpaceOnUse">
<stop stop-color="#636362"/>
<stop offset="1" stop-color="#807F7F"/>
</linearGradient>
<linearGradient id="paint10_linear_135_10468" x1="87.5025" y1="84.3309" x2="82.3993" y2="81.7829" gradientUnits="userSpaceOnUse">
<stop stop-color="#7E7D7F"/>
<stop offset="1" stop-color="#B1B0AF"/>
</linearGradient>
<linearGradient id="paint11_linear_135_10468" x1="225.919" y1="86.5638" x2="258.634" y2="70.25" gradientUnits="userSpaceOnUse">
<stop stop-color="#ADADAC"/>
<stop offset="1" stop-color="#D4D3D4"/>
</linearGradient>
<linearGradient id="paint12_linear_135_10468" x1="83.8976" y1="133.343" x2="73.4854" y2="127.672" gradientUnits="userSpaceOnUse">
<stop stop-color="#7E7E7E"/>
<stop offset="1" stop-color="#D7D4D5"/>
</linearGradient>
<linearGradient id="paint13_linear_135_10468" x1="132.678" y1="186.272" x2="151.291" y2="160.727" gradientUnits="userSpaceOnUse">
<stop stop-color="#101010"/>
<stop offset="1" stop-color="#434243"/>
</linearGradient>
</defs>
</svg>
